<svg xmlns="http://www.w3.org/2000/svg" xmlns:xlink="http://www.w3.org/1999/xlink" version="1.1" width="256" height="256" viewBox="0 0 256 256" xml:space="preserve">
<desc>Created with Fabric.js 1.7.22</desc>
<defs>
</defs>
<g transform="translate(128 128) scale(0.87 0.87)" style="">
	<g style="stroke: none; stroke-width: 0; stroke-dasharray: none; stroke-linecap: butt; stroke-linejoin: miter; stroke-miterlimit: 10; fill: none; fill-rule: nonzero; opacity: 1;" transform="translate(-144.89999999999998 -144.90000000000003) scale(3.22 3.22)" >
	<path d="M 13.269 90 c -0.256 0 -0.512 -0.098 -0.707 -0.293 L 0.293 77.438 c -0.391 -0.391 -0.391 -1.023 0 -1.414 L 76.024 0.293 c 0.391 -0.391 1.023 -0.391 1.414 0 l 12.269 12.269 c 0.391 0.391 0.391 1.023 0 1.414 L 13.976 89.707 C 13.78 89.902 13.524 90 13.269 90 z M 2.414 76.731 l 10.854 10.854 l 74.317 -74.317 L 76.731 2.414 L 2.414 76.731 z" style="stroke: none; stroke-width: 1; stroke-dasharray: none; stroke-linecap: butt; stroke-linejoin: miter; stroke-miterlimit: 10; fill: rgb(0,0,0); fill-rule: nonzero; opacity: 1;" transform=" matrix(1 0 0 1 0 0) " stroke-linecap="round" />
	<path d="M 44.068 45.068 c -0.256 0 -0.512 -0.098 -0.707 -0.293 l -4.888 -4.888 c -0.391 -0.391 -0.391 -1.023 0 -1.414 s 1.023 -0.391 1.414 0 l 4.888 4.888 c 0.391 0.391 0.391 1.023 0 1.414 C 44.58 44.97 44.324 45.068 44.068 45.068 z" style="stroke: none; stroke-width: 1; stroke-dasharray: none; stroke-linecap: butt; stroke-linejoin: miter; stroke-miterlimit: 10; fill: rgb(0,0,0); fill-rule: nonzero; opacity: 1;" transform=" matrix(1 0 0 1 0 0) " stroke-linecap="round" />
	<path d="M 25.2 63.936 c -0.256 0 -0.512 -0.098 -0.707 -0.293 l -4.888 -4.887 c -0.391 -0.391 -0.391 -1.023 0 -1.414 s 1.023 -0.391 1.414 0 l 4.888 4.887 c 0.391 0.391 0.391 1.023 0 1.414 C 25.711 63.838 25.456 63.936 25.2 63.936 z" style="stroke: none; stroke-width: 1; stroke-dasharray: none; stroke-linecap: butt; stroke-linejoin: miter; stroke-miterlimit: 10; fill: rgb(0,0,0); fill-rule: nonzero; opacity: 1;" transform=" matrix(1 0 0 1 0 0) " stroke-linecap="round" />
	<path d="M 62.936 26.2 c -0.256 0 -0.512 -0.098 -0.707 -0.293 l -4.887 -4.888 c -0.391 -0.391 -0.391 -1.024 0 -1.414 c 0.391 -0.391 1.023 -0.391 1.414 0 l 4.887 4.888 c 0.391 0.391 0.391 1.024 0 1.414 C 63.447 26.102 63.191 26.2 62.936 26.2 z" style="stroke: none; stroke-width: 1; stroke-dasharray: none; stroke-linecap: butt; stroke-linejoin: miter; stroke-miterlimit: 10; fill: rgb(0,0,0); fill-rule: nonzero; opacity: 1;" transform=" matrix(1 0 0 1 0 0) " stroke-linecap="round" />
	<path d="M 33.448 53.316 c -0.256 0 -0.512 -0.098 -0.707 -0.293 l -3.702 -3.702 c -0.391 -0.391 -0.391 -1.023 0 -1.414 s 1.023 -0.391 1.414 0 l 3.702 3.702 c 0.391 0.391 0.391 1.023 0 1.414 C 33.959 53.219 33.704 53.316 33.448 53.316 z" style="stroke: none; stroke-width: 1; stroke-dasharray: none; stroke-linecap: butt; stroke-linejoin: miter; stroke-miterlimit: 10; fill: rgb(0,0,0); fill-rule: nonzero; opacity: 1;" transform=" matrix(1 0 0 1 0 0) " stroke-linecap="round" />
	<path d="M 52.316 34.448 c -0.256 0 -0.512 -0.098 -0.707 -0.293 l -3.702 -3.702 c -0.391 -0.39 -0.391 -1.023 0 -1.414 s 1.023 -0.391 1.414 0 l 3.702 3.702 c 0.391 0.39 0.391 1.023 0 1.414 C 52.828 34.35 52.572 34.448 52.316 34.448 z" style="stroke: none; stroke-width: 1; stroke-dasharray: none; stroke-linecap: butt; stroke-linejoin: miter; stroke-miterlimit: 10; fill: rgb(0,0,0); fill-rule: nonzero; opacity: 1;" transform=" matrix(1 0 0 1 0 0) " stroke-linecap="round" />
	<path d="M 14.58 72.185 c -0.256 0 -0.512 -0.098 -0.707 -0.293 l -3.702 -3.702 c -0.391 -0.391 -0.391 -1.023 0 -1.414 s 1.023 -0.391 1.414 0 l 3.702 3.702 c 0.391 0.391 0.391 1.023 0 1.414 C 15.091 72.087 14.835 72.185 14.58 72.185 z" style="stroke: none; stroke-width: 1; stroke-dasharray: none; stroke-linecap: butt; stroke-linejoin: miter; stroke-miterlimit: 10; fill: rgb(0,0,0); fill-rule: nonzero; opacity: 1;" transform=" matrix(1 0 0 1 0 0) " stroke-linecap="round" />
	<path d="M 71.185 15.58 c -0.256 0 -0.512 -0.098 -0.707 -0.293 l -3.702 -3.702 c -0.391 -0.39 -0.391 -1.023 0 -1.414 s 1.023 -0.391 1.414 0 l 3.702 3.702 c 0.391 0.39 0.391 1.023 0 1.414 C 71.696 15.482 71.44 15.58 71.185 15.58 z" style="stroke: none; stroke-width: 1; stroke-dasharray: none; stroke-linecap: butt; stroke-linejoin: miter; stroke-miterlimit: 10; fill: rgb(0,0,0); fill-rule: nonzero; opacity: 1;" transform=" matrix(1 0 0 1 0 0) " stroke-linecap="round" />
	<path d="M 13.316 83.797 c -0.855 0 -1.711 -0.325 -2.363 -0.977 c -1.303 -1.303 -1.303 -3.424 0 -4.727 c 1.262 -1.265 3.463 -1.265 4.727 0 c 0.631 0.632 0.979 1.471 0.979 2.363 s -0.348 1.731 -0.979 2.363 l 0 0 C 15.028 83.472 14.172 83.797 13.316 83.797 z M 14.973 82.113 h 0.01 H 14.973 z M 13.317 79.114 c -0.358 0 -0.695 0.14 -0.949 0.394 c -0.523 0.523 -0.523 1.375 0 1.898 c 0.523 0.523 1.375 0.523 1.897 0 c 0.523 -0.523 0.523 -1.375 0 -1.898 C 14.012 79.254 13.675 79.114 13.317 79.114 z" style="stroke: none; stroke-width: 1; stroke-dasharray: none; stroke-linecap: butt; stroke-linejoin: miter; stroke-miterlimit: 10; fill: rgb(0,0,0); fill-rule: nonzero; opacity: 1;" transform=" matrix(1 0 0 1 0 0) " stroke-linecap="round" />
</g>
</g>
</svg>