<svg xmlns="http://www.w3.org/2000/svg" xmlns:xlink="http://www.w3.org/1999/xlink" version="1.1" width="256" height="256" viewBox="0 0 256 256" xml:space="preserve">
<desc>Created with Fabric.js 1.7.22</desc>
<defs>
</defs>
<g transform="translate(128 128) scale(0.87 0.87)" style="">
	<g style="stroke: none; stroke-width: 0; stroke-dasharray: none; stroke-linecap: butt; stroke-linejoin: miter; stroke-miterlimit: 10; fill: none; fill-rule: nonzero; opacity: 1;" transform="translate(-144.89999999999998 -144.90000000000003) scale(3.22 3.22)" >
	<path d="M 45 51.578 c 2.69 0 4.878 2.188 4.878 4.879 v 2.825 c 0 2.69 -2.188 4.879 -4.879 4.879 c -2.69 0 -4.878 -2.188 -4.878 -4.879 v -2.825 C 40.121 53.766 42.31 51.578 45 51.578 M 45 48.578 L 45 48.578 c -4.333 0 -7.879 3.545 -7.879 7.879 v 2.825 c 0 4.333 3.545 7.879 7.878 7.879 h 0 c 4.333 0 7.878 -3.545 7.878 -7.879 v -2.825 C 52.879 52.123 49.333 48.578 45 48.578 L 45 48.578 z" style="stroke: none; stroke-width: 1; stroke-dasharray: none; stroke-linecap: butt; stroke-linejoin: miter; stroke-miterlimit: 10; fill: rgb(0,0,0); fill-rule: nonzero; opacity: 1;" transform=" matrix(1 0 0 1 0 0) " stroke-linecap="round" />
	<path d="M 49.815 71.371 C 53.965 72.38 57 76.164 57 80.494 V 87 H 33 v -6.506 c 0 -4.331 3.035 -8.114 7.185 -9.124 c 1.529 0.63 3.173 0.959 4.815 0.959 S 48.286 72.001 49.815 71.371 M 49.436 68.243 c -1.333 0.69 -2.839 1.087 -4.436 1.087 s -3.103 -0.397 -4.436 -1.087 C 34.607 69.132 30 74.301 30 80.494 v 8.15 C 30 89.39 30.61 90 31.356 90 h 27.288 C 59.39 90 60 89.39 60 88.644 v -8.15 C 60 74.301 55.393 69.132 49.436 68.243 L 49.436 68.243 z" style="stroke: none; stroke-width: 1; stroke-dasharray: none; stroke-linecap: butt; stroke-linejoin: miter; stroke-miterlimit: 10; fill: rgb(0,0,0); fill-rule: nonzero; opacity: 1;" transform=" matrix(1 0 0 1 0 0) " stroke-linecap="round" />
	<path d="M 75 3 c 2.69 0 4.879 2.188 4.879 4.878 v 2.825 c 0 2.69 -2.188 4.878 -4.879 4.878 s -4.879 -2.188 -4.879 -4.878 V 7.879 C 70.121 5.188 72.31 3 75 3 M 75 0 L 75 0 c -4.333 0 -7.879 3.545 -7.879 7.878 v 2.825 c 0 4.333 3.545 7.878 7.879 7.878 h 0 c 4.333 0 7.879 -3.545 7.879 -7.878 V 7.879 C 82.879 3.545 79.333 0 75 0 L 75 0 z" style="stroke: none; stroke-width: 1; stroke-dasharray: none; stroke-linecap: butt; stroke-linejoin: miter; stroke-miterlimit: 10; fill: rgb(0,0,0); fill-rule: nonzero; opacity: 1;" transform=" matrix(1 0 0 1 0 0) " stroke-linecap="round" />
	<path d="M 79.815 22.793 C 83.965 23.802 87 27.586 87 31.917 v 6.506 H 63 v -6.506 c 0 -4.331 3.035 -8.114 7.185 -9.124 c 1.529 0.63 3.173 0.959 4.815 0.959 S 78.286 23.423 79.815 22.793 M 79.436 19.665 c -1.333 0.69 -2.839 1.087 -4.436 1.087 s -3.103 -0.397 -4.436 -1.087 C 64.607 20.554 60 25.723 60 31.917 v 8.15 c 0 0.746 0.61 1.356 1.356 1.356 h 27.288 c 0.746 0 1.356 -0.61 1.356 -1.356 v -8.15 C 90 25.723 85.393 20.554 79.436 19.665 L 79.436 19.665 z" style="stroke: none; stroke-width: 1; stroke-dasharray: none; stroke-linecap: butt; stroke-linejoin: miter; stroke-miterlimit: 10; fill: rgb(0,0,0); fill-rule: nonzero; opacity: 1;" transform=" matrix(1 0 0 1 0 0) " stroke-linecap="round" />
	<path d="M 15 3 c 2.69 0 4.879 2.188 4.879 4.878 v 2.825 c 0 2.69 -2.188 4.878 -4.879 4.878 c -2.69 0 -4.879 -2.188 -4.879 -4.878 V 7.879 C 10.121 5.188 12.31 3 15 3 M 15 0 L 15 0 c -4.333 0 -7.879 3.545 -7.879 7.878 v 2.825 c 0 4.333 3.545 7.878 7.879 7.878 h 0 c 4.333 0 7.879 -3.545 7.879 -7.878 V 7.879 C 22.879 3.545 19.333 0 15 0 L 15 0 z" style="stroke: none; stroke-width: 1; stroke-dasharray: none; stroke-linecap: butt; stroke-linejoin: miter; stroke-miterlimit: 10; fill: rgb(0,0,0); fill-rule: nonzero; opacity: 1;" transform=" matrix(1 0 0 1 0 0) " stroke-linecap="round" />
	<path d="M 19.815 22.793 C 23.965 23.802 27 27.586 27 31.917 v 6.506 H 3 v -6.506 c 0 -4.331 3.035 -8.114 7.185 -9.124 c 1.529 0.63 3.173 0.959 4.815 0.959 S 18.286 23.423 19.815 22.793 M 19.436 19.665 c -1.333 0.69 -2.839 1.087 -4.436 1.087 s -3.103 -0.397 -4.436 -1.087 C 4.607 20.554 0 25.723 0 31.917 v 8.15 c 0 0.746 0.61 1.356 1.356 1.356 h 27.288 c 0.746 0 1.356 -0.61 1.356 -1.356 v -8.15 C 30 25.723 25.393 20.554 19.436 19.665 L 19.436 19.665 z" style="stroke: none; stroke-width: 1; stroke-dasharray: none; stroke-linecap: butt; stroke-linejoin: miter; stroke-miterlimit: 10; fill: rgb(0,0,0); fill-rule: nonzero; opacity: 1;" transform=" matrix(1 0 0 1 0 0) " stroke-linecap="round" />
	<path d="M 32.785 29.435 c 3.779 -1.184 7.899 -1.842 12.215 -1.842 c 4.316 0 8.437 0.658 12.215 1.842 c 0.166 -0.995 0.42 -1.965 0.771 -2.893 c -4.03 -1.253 -8.407 -1.949 -12.986 -1.949 s -8.956 0.696 -12.986 1.949 C 32.365 27.47 32.619 28.44 32.785 29.435 z" style="stroke: none; stroke-width: 1; stroke-dasharray: none; stroke-linecap: butt; stroke-linejoin: miter; stroke-miterlimit: 10; fill: rgb(0,0,0); fill-rule: nonzero; opacity: 1;" transform=" matrix(1 0 0 1 0 0) " stroke-linecap="round" />
	<path d="M 28.01 75.057 c -9.498 -4.488 -15.857 -12.618 -15.857 -21.884 c 0 -3.072 0.7 -6.019 1.981 -8.75 h -3.256 c -1.116 2.76 -1.725 5.699 -1.725 8.75 c 0 10.602 7.285 19.868 18.068 24.801 C 27.391 76.969 27.652 75.992 28.01 75.057 z" style="stroke: none; stroke-width: 1; stroke-dasharray: none; stroke-linecap: butt; stroke-linejoin: miter; stroke-miterlimit: 10; fill: rgb(0,0,0); fill-rule: nonzero; opacity: 1;" transform=" matrix(1 0 0 1 0 0) " stroke-linecap="round" />
	<path d="M 79.122 44.422 h -3.256 c 1.281 2.731 1.981 5.678 1.981 8.75 c 0 9.266 -6.36 17.396 -15.858 21.884 c 0.358 0.935 0.619 1.912 0.789 2.917 c 10.784 -4.933 18.069 -14.198 18.069 -24.801 C 80.848 50.121 80.238 47.182 79.122 44.422 z" style="stroke: none; stroke-width: 1; stroke-dasharray: none; stroke-linecap: butt; stroke-linejoin: miter; stroke-miterlimit: 10; fill: rgb(0,0,0); fill-rule: nonzero; opacity: 1;" transform=" matrix(1 0 0 1 0 0) " stroke-linecap="round" />
</g>
</g>
</svg>